<?xml version="1.0" encoding="UTF-8"?>
<svg xmlns="http://www.w3.org/2000/svg" xmlns:xlink="http://www.w3.org/1999/xlink" viewBox="0 0 48 48" width="48px" height="48px">
<g id="surface16341838">
<path style=" stroke:none;fill-rule:nonzero;fill:rgb(100%,100%,100%);fill-opacity:1;" d="M 32 6 C 26.570312 6 22.160156 10.390625 22.042969 15.792969 C 17.242188 15.21875 14.113281 13.421875 12.195312 11.652344 C 10.066406 9.691406 9.394531 7.945312 9.394531 7.945312 C 9.195312 7.441406 8.738281 7.085938 8.199219 7.015625 C 7.660156 6.941406 7.125 7.164062 6.800781 7.597656 C 6.800781 7.597656 5 10 5 13.5 C 5 15.5 5.632812 16.980469 6.386719 18.234375 C 6.355469 18.222656 6.171875 18.15625 6.171875 18.15625 C 5.683594 17.914062 5.101562 17.953125 4.652344 18.261719 C 4.203125 18.570312 3.957031 19.09375 4.007812 19.636719 C 4.007812 19.636719 4.582031 23.855469 8.550781 26.941406 L 8.136719 27.042969 C 7.679688 27.160156 7.304688 27.480469 7.121094 27.910156 C 6.9375 28.34375 6.964844 28.835938 7.195312 29.242188 C 7.195312 29.242188 7.871094 30.382812 9.277344 31.578125 C 10.113281 32.289062 11.34375 33.023438 12.789062 33.699219 C 11.011719 34.351562 8.363281 35 4.5 35 C 3.910156 35 3.375 35.34375 3.132812 35.878906 C 2.890625 36.417969 2.984375 37.046875 3.371094 37.488281 C 3.371094 37.488281 4.515625 38.75 6.785156 39.847656 C 9.050781 40.949219 12.539062 42 17.5 42 C 26.21875 42 32.484375 37.816406 36.394531 32.515625 C 40.304688 27.214844 42 20.859375 42 16 C 42 15.691406 41.980469 15.386719 41.953125 15.085938 C 44.0625 13.050781 44.855469 11.523438 44.894531 11.449219 C 45.085938 11.066406 45.015625 10.609375 44.71875 10.304688 C 44.425781 10 43.96875 9.914062 43.582031 10.089844 L 43.421875 10.164062 C 43.28125 10.230469 43.140625 10.292969 43.003906 10.355469 C 43.410156 9.707031 43.730469 9.015625 43.953125 8.296875 C 44.078125 7.902344 43.941406 7.46875 43.617188 7.210938 C 43.289062 6.953125 42.835938 6.925781 42.480469 7.144531 C 41.257812 7.886719 40.085938 8.40625 38.867188 8.753906 C 37.074219 7.054688 34.65625 6 32 6 Z M 32 9 C 35.882812 9 39 12.117188 39 16 C 39 20.140625 37.445312 26.035156 33.980469 30.734375 C 30.515625 35.433594 25.28125 39 17.5 39 C 13.734375 39 11.230469 38.320312 9.355469 37.582031 C 11.320312 37.277344 13.011719 36.871094 14.230469 36.398438 C 16.339844 35.582031 17.476562 34.636719 17.476562 34.636719 C 17.902344 34.273438 18.089844 33.699219 17.960938 33.15625 C 17.832031 32.609375 17.40625 32.179688 16.863281 32.042969 C 14.140625 31.363281 12.394531 30.261719 11.300781 29.34375 L 12.863281 28.953125 C 13.5 28.796875 13.957031 28.246094 13.996094 27.589844 C 14.039062 26.9375 13.648438 26.335938 13.039062 26.097656 C 9.792969 24.851562 8.429688 23.085938 7.734375 21.605469 C 8.582031 21.78125 9.371094 22 10.5 22 C 11.195312 22 11.800781 21.519531 11.957031 20.84375 C 12.117188 20.167969 11.792969 19.46875 11.171875 19.160156 C 11.171875 19.160156 8 17.699219 8 13.5 C 8 12.746094 8.207031 12.269531 8.363281 11.695312 C 8.882812 12.398438 9.316406 13.078125 10.160156 13.855469 C 12.734375 16.230469 16.992188 18.652344 23.421875 18.996094 C 23.832031 19.019531 24.234375 18.871094 24.53125 18.589844 C 24.832031 18.304688 25 17.910156 25 17.5 L 25 16 C 25 12.117188 28.117188 9 32 9 Z M 32 9 "/>
</g>
</svg>
