<svg width="512" height="512" viewBox="0 0 512 512" fill="none" xmlns="http://www.w3.org/2000/svg">
<g clip-path="url(#clip0)">
<path d="M509.738 109.538C506.711 104.614 501.172 101.823 495.406 102.323L469.876 104.547L494.279 55.354C497.185 49.495 496.037 42.436 491.425 37.799C486.811 33.162 479.759 31.98 473.886 34.856L409.299 66.487C369.396 45.421 319.543 51.674 285.239 82.923C256.609 109.003 241.56 149.11 244.366 189.106C169.537 181.606 106.197 138.775 68.743 69.569C66.258 64.978 61.599 61.975 56.392 61.606C51.175 61.243 46.149 63.555 43.043 67.752C19.813 99.134 18.183 142.162 36.394 177.561C31.374 176.293 26.032 174.577 20.108 172.598C15.033 170.901 9.43803 171.988 5.36503 175.46C1.29203 178.932 -0.665971 184.283 0.205029 189.564C7.41103 233.252 32.887 266.828 73.131 286.702C67.891 288.527 62.544 290.009 57.107 291.142C51.705 292.268 47.331 296.22 45.666 301.481C44.001 306.741 45.303 312.491 49.073 316.52C78.054 347.498 119.918 362.745 149.654 370.059C115.844 396.536 79.347 400.967 26.313 399.146C20.174 398.96 14.518 402.418 11.937 407.983C9.35703 413.549 10.358 420.119 14.481 424.664C36.589 449.033 117.135 476.511 201.807 478.571C205.156 478.652 208.572 478.696 212.06 478.696C271.511 478.695 350.082 465.951 406.479 409.554C449.166 366.868 475.866 317.727 485.835 263.501C493.887 219.704 488.798 184.632 486.353 167.776C486.173 166.537 485.981 165.222 485.825 164.072L509.706 125.582C512.752 120.672 512.765 114.462 509.738 109.538Z" fill="#090B19"/>
</g>
<defs>
<clipPath id="clip0">
<rect width="511.999" height="511.999" fill="white"/>
</clipPath>
</defs>
</svg>
