<svg width="512" height="512" viewBox="0 0 512 512" fill="none" xmlns="http://www.w3.org/2000/svg">
<path d="M7.81299 509.935H140.384V161.322H7.81299V509.935ZM37.813 191.322H110.384V479.934H37.813V191.322Z" fill="white"/>
<path d="M74.099 2.06494C33.24 2.06494 0 35.3059 0 76.1639C0 117.022 33.24 150.264 74.099 150.264C114.958 150.264 148.199 117.023 148.199 76.1639C148.199 35.3049 114.957 2.06494 74.099 2.06494V2.06494ZM30 76.1639C30 51.8479 49.782 32.0649 74.099 32.0649C98.416 32.0649 118.199 51.8469 118.199 76.1639C118.199 100.481 98.416 120.264 74.099 120.264C49.782 120.264 30 100.48 30 76.1639V76.1639Z" fill="white"/>
<path d="M511.679 270.79C506.961 202.935 450.361 150.646 380.19 150.646C348.803 150.646 319.174 161.558 295.829 180.92V161.32H168.799V509.933H301.371V319.269C301.371 297.781 318.852 280.299 340.341 280.299C361.828 280.299 379.31 297.781 379.31 319.278L379.438 509.934H512V271.112L511.679 270.79ZM271.371 479.935H198.799V191.321H265.828V234.168L289.833 234.306L294.293 227.382C313.143 198.117 345.254 180.647 380.19 180.647C436.026 180.647 480.733 223.249 481.97 277.632L482 479.935H409.418L409.31 319.269C409.31 281.239 378.37 250.299 340.341 250.299C302.311 250.299 271.371 281.239 271.371 319.269V479.935Z" fill="white"/>
</svg>
