<svg width="677" height="283" viewBox="0 0 677 283" fill="none" xmlns="http://www.w3.org/2000/svg">
<path fill-rule="evenodd" clip-rule="evenodd" d="M15.1581 41.7622L29.0788 0C35.702 38.0835 70.3785 76.3868 104.239 105.679V128.03C44.8238 88.7756 15.1581 41.7622 15.1581 41.7622ZM104.239 149.698C78.8863 134.635 32.7831 103.778 8.6618 66.51L2.62949 100.538C2.62949 100.538 43.4165 138.486 104.239 155.427V149.698ZM111.239 157.259V153.767C117.925 157.567 122.003 159.624 122.038 159.624C118.379 158.918 114.778 158.126 111.239 157.259ZM104.239 172.688C76.0914 165.06 30.0282 150.016 0 126.988L0.154675 158.232C0.154675 158.232 45.6711 181.23 104.239 180.425V172.688ZM111.239 180.215V174.531C122.034 177.292 128.844 178.649 128.844 178.649C122.885 179.44 117.007 179.948 111.239 180.215ZM104.239 195.225C73.0435 195.069 26.9243 192.595 2.93884 180.505L10.2086 208.501C10.2086 208.501 58.2284 216.354 104.239 205.744V195.225ZM111.239 203.978V195.223C126.174 195.14 136.268 194.581 136.268 194.581C128.311 198.536 119.856 201.609 111.239 203.978ZM111.239 111.62V132.529C122.894 139.815 135.61 146.748 149.388 152.961V152.776L147.5 139.385C136.973 131.955 124.319 122.518 111.239 111.62ZM125.975 214C103.339 221.048 61.2631 231.398 18.4063 227.836L30.7803 247.789C30.7803 247.789 93.4563 248.206 136.215 214H125.975ZM48.2585 267.278L68.2115 282.9C68.2115 282.9 127.452 263.411 149.57 223.505C149.57 223.505 86.9272 265.112 48.2585 267.278Z" fill="#FE984E"/>
<path d="M189.849 45.1551H103.147L111.239 62.4956V207H189.849C209.964 207 221.062 195.902 221.062 175.787V76.368C221.062 56.253 209.964 45.1551 189.849 45.1551ZM182.913 167.695C182.913 171.394 180.832 173.475 177.133 173.475H149.388V78.6801H177.133C180.832 78.6801 182.913 80.7609 182.913 84.4602V167.695Z" fill="#100E29"/>
<path d="M266.436 208.156H313.833C333.948 208.156 345.046 197.058 345.046 176.943V75.212C345.046 55.0969 333.948 43.999 313.833 43.999H266.436C246.321 43.999 235.223 55.0969 235.223 75.212V176.943C235.223 197.058 246.321 208.156 266.436 208.156ZM273.372 168.851V83.3042C273.372 79.6049 275.453 77.524 279.152 77.524H301.117C304.816 77.524 306.897 79.6049 306.897 83.3042V168.851C306.897 172.55 304.816 174.631 301.117 174.631H279.152C275.453 174.631 273.372 172.55 273.372 168.851Z" fill="#100E29"/>
<path d="M342.918 45.1551L388.697 152.204V207H426.846V152.204L472.394 45.1551H431.933L407.887 110.355L383.379 45.1551H342.918Z" fill="#100E29"/>
<path d="M514.281 173.475V45.1551H476.132V207H550.118L568.615 173.475H514.281Z" fill="#100E29"/>
<path d="M611.758 141.106H646.439L664.935 107.581H611.758V78.6801H657.999L676.496 45.1551H565.516L573.608 62.4956V207H657.999L676.496 173.475H611.758V141.106Z" fill="#100E29"/>
<path d="M172.941 224.785C177.6 224.785 180.842 225.629 182.668 227.317C184.494 228.982 185.407 231.336 185.407 234.379C185.407 236.472 185.044 238.255 184.318 239.729C183.593 241.18 182.317 242.321 180.491 243.153C178.665 243.962 176.149 244.366 172.941 244.366H165.638V250.643H157C157.187 246.03 157.281 241.715 157.281 237.696C157.281 233.678 157.187 229.362 157 224.749H165.638V224.785H172.941ZM170.484 237.482C172.426 237.482 173.878 237.411 174.838 237.268C175.821 237.102 176.5 236.816 176.874 236.412C177.272 236.008 177.471 235.413 177.471 234.629C177.471 233.844 177.284 233.262 176.909 232.881C176.558 232.477 175.891 232.203 174.908 232.061C173.948 231.918 172.473 231.847 170.484 231.847H165.638V237.482H170.484Z" fill="#100E29"/>
<path d="M196.491 244.116C205.386 244.069 211.836 243.938 215.839 243.724C215.675 244.699 215.569 245.709 215.523 246.756C215.499 247.778 215.487 249.074 215.487 250.643H188.204C188.392 246.03 188.485 241.715 188.485 237.696C188.485 233.678 188.392 229.362 188.204 224.749H215.487V231.205H196.491V234.629C197.615 234.653 199.277 234.664 201.477 234.664C205.199 234.664 209.05 234.593 213.029 234.45V240.585C209.05 240.443 205.199 240.371 201.477 240.371C199.277 240.371 197.615 240.383 196.491 240.407V244.116Z" fill="#100E29"/>
<path d="M246.85 233.38C246.85 235.449 246.347 237.197 245.34 238.624C244.357 240.05 242.66 241.085 240.249 241.727C240.53 242.107 240.729 242.404 240.846 242.618L246.534 250.643H236.983C235.953 248.694 234.326 245.935 232.103 242.369H226.941V250.643H218.654C218.841 246.03 218.935 241.715 218.935 237.696C218.935 233.678 218.841 229.362 218.654 224.749H226.941V224.785H234.139C238.868 224.785 242.168 225.557 244.041 227.103C245.914 228.649 246.85 230.741 246.85 233.38ZM226.941 231.633V235.699H231.681C233.671 235.699 235.169 235.639 236.176 235.52C237.206 235.378 237.92 235.164 238.318 234.878C238.716 234.593 238.915 234.177 238.915 233.63C238.915 233.107 238.727 232.703 238.353 232.417C237.978 232.132 237.276 231.93 236.246 231.811C235.216 231.692 233.694 231.633 231.681 231.633H226.941Z" fill="#100E29"/>
<path d="M277.041 231.419H257.94V235.164C259.133 235.188 260.924 235.199 263.312 235.199C267.432 235.199 271.622 235.128 275.882 234.985V241.976C271.622 241.81 267.128 241.727 262.399 241.727C260.433 241.727 258.946 241.738 257.94 241.762V250.643H249.653C249.84 246.03 249.934 241.715 249.934 237.696C249.934 233.678 249.84 229.362 249.653 224.749H277.041V231.419Z" fill="#100E29"/>
<path d="M295.488 251C290.127 251 286.183 249.823 283.655 247.469C281.127 245.091 279.863 241.762 279.863 237.482C279.863 233.25 281.115 229.945 283.62 227.567C286.148 225.189 290.104 224 295.488 224C300.896 224 304.852 225.189 307.356 227.567C309.885 229.945 311.149 233.25 311.149 237.482C311.149 241.786 309.896 245.115 307.392 247.469C304.887 249.823 300.919 251 295.488 251ZM295.488 243.724C298.086 243.724 299.959 243.225 301.106 242.226C302.253 241.203 302.827 239.622 302.827 237.482C302.827 235.39 302.253 233.832 301.106 232.81C299.959 231.787 298.086 231.276 295.488 231.276C292.913 231.276 291.052 231.787 289.905 232.81C288.758 233.832 288.185 235.39 288.185 237.482C288.185 239.598 288.758 241.168 289.905 242.19C291.052 243.213 292.913 243.724 295.488 243.724Z" fill="#100E29"/>
<path d="M342.143 233.38C342.143 235.449 341.64 237.197 340.634 238.624C339.65 240.05 337.953 241.085 335.542 241.727C335.823 242.107 336.022 242.404 336.139 242.618L341.827 250.643H332.277C331.247 248.694 329.62 245.935 327.396 242.369H322.234V250.643H313.947C314.135 246.03 314.228 241.715 314.228 237.696C314.228 233.678 314.135 229.362 313.947 224.749H322.234V224.785H329.432C334.161 224.785 337.462 225.557 339.334 227.103C341.207 228.649 342.143 230.741 342.143 233.38ZM322.234 231.633V235.699H326.974C328.964 235.699 330.462 235.639 331.469 235.52C332.499 235.378 333.213 235.164 333.611 234.878C334.009 234.593 334.208 234.177 334.208 233.63C334.208 233.107 334.02 232.703 333.646 232.417C333.271 232.132 332.569 231.93 331.539 231.811C330.509 231.692 328.988 231.633 326.974 231.633H322.234Z" fill="#100E29"/>
<path d="M377.091 224.749L379.83 250.643H370.736L370.174 232.168L366.662 250.643H357.463L353.881 232.31L353.354 250.643H344.26L346.999 224.749H358.937L361.992 241.62L364.661 224.749H377.091Z" fill="#100E29"/>
<path d="M404.788 250.643C404.343 249.288 403.746 247.588 402.997 245.543H391.796L390.04 250.643H381.227L391.058 224.749H403.98L413.882 250.643H404.788ZM400.995 239.979C400.106 237.482 399.193 234.985 398.257 232.489L397.414 230.17C396.594 232.334 395.389 235.604 393.797 239.979H400.995Z" fill="#100E29"/>
<path d="M444.53 224.785C444.366 228.803 444.284 233.107 444.284 237.696C444.284 242.309 444.366 246.625 444.53 250.643H431.959L423.462 231.169L424.094 250.643H415.07C415.257 246.03 415.351 241.715 415.351 237.696C415.351 233.701 415.257 229.398 415.07 224.785H427.992L436.524 244.794L435.927 224.785H444.53Z" fill="#100E29"/>
<path d="M462.787 251C457.497 251 453.599 249.859 451.094 247.576C448.589 245.293 447.337 242.036 447.337 237.803C447.337 233.547 448.589 230.182 451.094 227.709C453.599 225.236 457.497 224 462.787 224C470.184 224 475.135 226.58 477.64 231.74C475.533 232.477 473.064 233.583 470.231 235.057C469.552 233.725 468.475 232.738 467.001 232.096C465.549 231.454 464.063 231.133 462.541 231.133C460.294 231.133 458.62 231.74 457.52 232.952C456.42 234.141 455.87 235.616 455.87 237.375C455.87 239.277 456.455 240.835 457.625 242.048C458.819 243.236 460.633 243.831 463.068 243.831C465.011 243.831 466.556 243.51 467.703 242.868C468.85 242.202 469.693 241.156 470.231 239.729C472.151 240.775 474.609 241.952 477.605 243.26C476.434 246.137 474.48 248.147 471.741 249.288C469.002 250.429 466.017 251 462.787 251Z" fill="#100E29"/>
<path d="M488.748 244.116C497.644 244.069 504.093 243.938 508.096 243.724C507.932 244.699 507.827 245.709 507.78 246.756C507.757 247.778 507.745 249.074 507.745 250.643H480.462C480.649 246.03 480.743 241.715 480.743 237.696C480.743 233.678 480.649 229.362 480.462 224.749H507.745V231.205H488.748V234.629C489.872 234.653 491.534 234.664 493.735 234.664C497.457 234.664 501.307 234.593 505.287 234.45V240.585C501.307 240.443 497.457 240.371 493.735 240.371C491.534 240.371 489.872 240.383 488.748 240.407V244.116Z" fill="#100E29"/>
<path d="M532.408 235.877H547.401V250.643H541.221L540.484 244.33C539.782 246.589 538.529 248.266 536.727 249.359C534.924 250.453 532.724 251 530.125 251C527.761 251 525.654 250.465 523.805 249.395C521.979 248.325 520.539 246.791 519.486 244.794C518.456 242.797 517.941 240.466 517.941 237.803C517.941 233.547 519.193 230.182 521.698 227.709C524.203 225.236 528.101 224 533.391 224C536.411 224 539.068 224.499 541.362 225.498C543.679 226.497 545.646 228.042 547.261 230.135C546.207 230.682 544.147 231.775 541.081 233.416L540.203 233.915C539.29 232.988 538.225 232.299 537.008 231.847C535.79 231.371 534.503 231.133 533.145 231.133C530.898 231.133 529.224 231.74 528.124 232.952C527.024 234.141 526.474 235.616 526.474 237.375C526.474 239.277 527.059 240.811 528.229 241.976C529.423 243.141 531.237 243.724 533.672 243.724C534.725 243.724 535.744 243.569 536.727 243.26C537.733 242.951 538.576 242.416 539.255 241.655H532.408V235.877Z" fill="#100E29"/>
<path d="M578.404 233.38C578.404 235.449 577.901 237.197 576.895 238.624C575.911 240.05 574.214 241.085 571.803 241.727C572.084 242.107 572.283 242.404 572.4 242.618L578.088 250.643H568.538C567.508 248.694 565.881 245.935 563.657 242.369H558.495V250.643H550.208C550.396 246.03 550.489 241.715 550.489 237.696C550.489 233.678 550.396 229.362 550.208 224.749H558.495V224.785H565.693C570.422 224.785 573.723 225.557 575.595 227.103C577.468 228.649 578.404 230.741 578.404 233.38ZM558.495 231.633V235.699H563.235C565.225 235.699 566.723 235.639 567.73 235.52C568.76 235.378 569.474 235.164 569.872 234.878C570.27 234.593 570.469 234.177 570.469 233.63C570.469 233.107 570.282 232.703 569.907 232.417C569.532 232.132 568.83 231.93 567.8 231.811C566.77 231.692 565.249 231.633 563.235 231.633H558.495Z" fill="#100E29"/>
<path d="M596.832 251C591.472 251 587.527 249.823 584.999 247.469C582.471 245.091 581.207 241.762 581.207 237.482C581.207 233.25 582.459 229.945 584.964 227.567C587.492 225.189 591.448 224 596.832 224C602.24 224 606.196 225.189 608.701 227.567C611.229 229.945 612.493 233.25 612.493 237.482C612.493 241.786 611.241 245.115 608.736 247.469C606.231 249.823 602.263 251 596.832 251ZM596.832 243.724C599.431 243.724 601.304 243.225 602.451 242.226C603.598 241.203 604.171 239.622 604.171 237.482C604.171 235.39 603.598 233.832 602.451 232.81C601.304 231.787 599.431 231.276 596.832 231.276C594.257 231.276 592.396 231.787 591.249 232.81C590.102 233.832 589.529 235.39 589.529 237.482C589.529 239.598 590.102 241.168 591.249 242.19C592.396 243.213 594.257 243.724 596.832 243.724Z" fill="#100E29"/>
<path d="M636.079 224.713H644.787V238.909C644.74 242.404 643.558 245.293 641.24 247.576C638.946 249.859 635.072 251 629.618 251C624.093 251 620.313 249.918 618.276 247.754C616.24 245.567 615.245 242.701 615.292 239.159V224.713H624V238.588C624 239.634 624.07 240.49 624.21 241.156C624.374 241.798 624.866 242.404 625.685 242.975C626.528 243.546 627.874 243.831 629.723 243.831C631.736 243.831 633.211 243.546 634.148 242.975C635.084 242.38 635.634 241.727 635.798 241.013C635.985 240.3 636.079 239.384 636.079 238.267V224.713Z" fill="#100E29"/>
<path d="M663.535 224.785C668.193 224.785 671.435 225.629 673.261 227.317C675.087 228.982 676 231.336 676 234.379C676 236.472 675.637 238.255 674.911 239.729C674.186 241.18 672.91 242.321 671.084 243.153C669.258 243.962 666.742 244.366 663.535 244.366H656.231V250.643H647.593C647.781 246.03 647.874 241.715 647.874 237.696C647.874 233.678 647.781 229.362 647.593 224.749H656.231V224.785H663.535ZM661.077 237.482C663.02 237.482 664.471 237.411 665.431 237.268C666.414 237.102 667.093 236.816 667.467 236.412C667.865 236.008 668.064 235.413 668.064 234.629C668.064 233.844 667.877 233.262 667.503 232.881C667.151 232.477 666.484 232.203 665.501 232.061C664.541 231.918 663.067 231.847 661.077 231.847H656.231V237.482H661.077Z" fill="#100E29"/>
</svg>
