<svg width="691" height="283" viewBox="0 0 691 283" fill="none" xmlns="http://www.w3.org/2000/svg">
<path d="M155.094 248.127C155.851 246.991 156.475 245.933 156.965 244.953C157.477 243.973 157.967 242.837 158.435 241.545C160.016 242.458 161.854 243.171 163.947 243.683C166.041 244.196 167.99 244.452 169.794 244.452C171.642 244.452 172.945 244.296 173.703 243.984C174.46 243.65 174.839 243.294 174.839 242.915C174.839 241.556 172.767 240.877 168.624 240.877C164.081 240.877 160.784 240.409 158.735 239.474C156.686 238.516 155.662 236.979 155.662 234.863C155.662 231.857 156.909 229.641 159.404 228.215C161.898 226.79 165.139 226.077 169.126 226.077C171.442 226.077 173.814 226.378 176.242 226.979C178.692 227.558 180.897 228.36 182.857 229.384C182.211 230.854 181.531 232.647 180.819 234.763C180.685 235.209 180.574 235.543 180.485 235.766C179.349 234.852 177.634 234.095 175.34 233.494C173.046 232.87 171.019 232.558 169.259 232.558C167.143 232.558 165.718 232.703 164.983 232.993C164.248 233.26 163.88 233.661 163.88 234.195C163.88 234.73 164.382 235.164 165.384 235.498C166.408 235.81 167.878 235.966 169.794 235.966C174.516 235.966 177.946 236.512 180.084 237.603C182.222 238.672 183.291 240.32 183.291 242.548C183.291 245.666 182.155 247.915 179.883 249.296C177.611 250.655 174.17 251.334 169.56 251.334C167.088 251.334 164.571 251.067 162.009 250.532C159.448 249.975 157.143 249.174 155.094 248.127ZM201.126 226.778C205.558 226.778 208.643 227.569 210.38 229.151C212.117 230.71 212.986 232.915 212.986 235.766C212.986 237.725 212.641 239.396 211.95 240.777C211.26 242.135 210.046 243.205 208.309 243.984C206.571 244.741 204.177 245.12 201.126 245.12H194.177V251H185.958C186.136 246.679 186.225 242.637 186.225 238.873C186.225 235.108 186.136 231.066 185.958 226.745H194.177V226.778H201.126ZM198.787 238.672C200.636 238.672 202.017 238.605 202.93 238.472C203.865 238.316 204.511 238.048 204.867 237.67C205.246 237.291 205.435 236.734 205.435 235.999C205.435 235.264 205.257 234.719 204.901 234.362C204.567 233.984 203.932 233.728 202.997 233.594C202.083 233.46 200.68 233.393 198.787 233.393H194.177V238.672H198.787ZM230.515 251.334C225.414 251.334 221.661 250.232 219.256 248.027C216.85 245.799 215.648 242.681 215.648 238.672C215.648 234.708 216.839 231.612 219.222 229.384C221.628 227.157 225.392 226.043 230.515 226.043C235.66 226.043 239.424 227.157 241.807 229.384C244.212 231.612 245.415 234.708 245.415 238.672C245.415 242.703 244.223 245.822 241.84 248.027C239.457 250.232 235.682 251.334 230.515 251.334ZM230.515 244.519C232.987 244.519 234.769 244.051 235.86 243.115C236.951 242.158 237.497 240.677 237.497 238.672C237.497 236.712 236.951 235.253 235.86 234.296C234.769 233.338 232.987 232.859 230.515 232.859C228.065 232.859 226.294 233.338 225.203 234.296C224.111 235.253 223.566 236.712 223.566 238.672C223.566 240.654 224.111 242.124 225.203 243.082C226.294 244.04 228.065 244.519 230.515 244.519ZM274.905 234.83C274.905 236.768 274.426 238.405 273.469 239.741C272.533 241.078 270.918 242.046 268.624 242.648C268.892 243.004 269.081 243.283 269.192 243.483L274.605 251H265.517C264.537 249.174 262.989 246.59 260.873 243.249H255.962V251H248.078C248.256 246.679 248.345 242.637 248.345 238.873C248.345 235.108 248.256 231.066 248.078 226.745H255.962V226.778H262.811C267.31 226.778 270.451 227.502 272.232 228.95C274.014 230.398 274.905 232.358 274.905 234.83ZM255.962 233.193V237.002H260.473C262.366 237.002 263.791 236.946 264.749 236.835C265.729 236.701 266.408 236.501 266.787 236.233C267.165 235.966 267.355 235.576 267.355 235.064C267.355 234.574 267.177 234.195 266.82 233.928C266.464 233.661 265.796 233.471 264.816 233.36C263.836 233.249 262.388 233.193 260.473 233.193H255.962ZM304.606 233.761C301.109 233.65 297.713 233.583 294.416 233.561V251H286.064V233.561C282.745 233.583 279.36 233.65 275.908 233.761V226.745H304.606V233.761ZM307.294 248.127C308.051 246.991 308.675 245.933 309.165 244.953C309.677 243.973 310.167 242.837 310.635 241.545C312.216 242.458 314.054 243.171 316.147 243.683C318.241 244.196 320.19 244.452 321.994 244.452C323.842 244.452 325.145 244.296 325.903 243.984C326.66 243.65 327.039 243.294 327.039 242.915C327.039 241.556 324.967 240.877 320.825 240.877C316.281 240.877 312.985 240.409 310.935 239.474C308.886 238.516 307.862 236.979 307.862 234.863C307.862 231.857 309.109 229.641 311.604 228.215C314.098 226.79 317.339 226.077 321.326 226.077C323.642 226.077 326.014 226.378 328.442 226.979C330.892 227.558 333.097 228.36 335.057 229.384C334.411 230.854 333.732 232.647 333.019 234.763C332.885 235.209 332.774 235.543 332.685 235.766C331.549 234.852 329.834 234.095 327.54 233.494C325.246 232.87 323.219 232.558 321.459 232.558C319.343 232.558 317.918 232.703 317.183 232.993C316.448 233.26 316.08 233.661 316.08 234.195C316.08 234.73 316.582 235.164 317.584 235.498C318.608 235.81 320.078 235.966 321.994 235.966C326.716 235.966 330.146 236.512 332.284 237.603C334.422 238.672 335.491 240.32 335.491 242.548C335.491 245.666 334.355 247.915 332.083 249.296C329.812 250.655 326.37 251.334 321.76 251.334C319.288 251.334 316.771 251.067 314.21 250.532C311.648 249.975 309.343 249.174 307.294 248.127ZM360.014 226.778C364.446 226.778 367.531 227.569 369.268 229.151C371.006 230.71 371.874 232.915 371.874 235.766C371.874 237.725 371.529 239.396 370.839 240.777C370.148 242.135 368.934 243.205 367.197 243.984C365.46 244.741 363.065 245.12 360.014 245.12H353.065V251H344.846C345.025 246.679 345.114 242.637 345.114 238.873C345.114 235.108 345.025 231.066 344.846 226.745H353.065V226.778H360.014ZM357.675 238.672C359.524 238.672 360.905 238.605 361.818 238.472C362.754 238.316 363.4 238.048 363.756 237.67C364.135 237.291 364.324 236.734 364.324 235.999C364.324 235.264 364.146 234.719 363.789 234.362C363.455 233.984 362.82 233.728 361.885 233.594C360.972 233.46 359.569 233.393 357.675 233.393H353.065V238.672H357.675ZM382.421 244.886C390.884 244.842 397.02 244.719 400.829 244.519C400.673 245.432 400.573 246.378 400.528 247.358C400.506 248.316 400.495 249.53 400.495 251H374.536C374.714 246.679 374.803 242.637 374.803 238.873C374.803 235.108 374.714 231.066 374.536 226.745H400.495V232.792H382.421V235.999C383.49 236.022 385.071 236.033 387.165 236.033C390.706 236.033 394.37 235.966 398.156 235.832V241.579C394.37 241.445 390.706 241.378 387.165 241.378C385.071 241.378 383.49 241.389 382.421 241.412V244.886ZM430.335 234.83C430.335 236.768 429.856 238.405 428.899 239.741C427.963 241.078 426.348 242.046 424.054 242.648C424.322 243.004 424.511 243.283 424.622 243.483L430.035 251H420.947C419.967 249.174 418.419 246.59 416.304 243.249H411.392V251H403.508C403.686 246.679 403.775 242.637 403.775 238.873C403.775 235.108 403.686 231.066 403.508 226.745H411.392V226.778H418.241C422.74 226.778 425.881 227.502 427.663 228.95C429.444 230.398 430.335 232.358 430.335 234.83ZM411.392 233.193V237.002H415.903C417.796 237.002 419.221 236.946 420.179 236.835C421.159 236.701 421.838 236.501 422.217 236.233C422.596 235.966 422.785 235.576 422.785 235.064C422.785 234.574 422.607 234.195 422.25 233.928C421.894 233.661 421.226 233.471 420.246 233.36C419.266 233.249 417.818 233.193 415.903 233.193H411.392ZM459.061 232.993H440.886V236.501C442.022 236.523 443.726 236.534 445.998 236.534C449.918 236.534 453.905 236.467 457.958 236.333V242.882C453.905 242.726 449.628 242.648 445.129 242.648C443.258 242.648 441.844 242.659 440.886 242.681V251H433.002C433.18 246.679 433.269 242.637 433.269 238.873C433.269 235.108 433.18 231.066 433.002 226.745H459.061V232.993ZM476.612 251.334C471.512 251.334 467.759 250.232 465.353 248.027C462.948 245.799 461.745 242.681 461.745 238.672C461.745 234.708 462.937 231.612 465.32 229.384C467.725 227.157 471.489 226.043 476.612 226.043C481.757 226.043 485.521 227.157 487.904 229.384C490.31 231.612 491.513 234.708 491.513 238.672C491.513 242.703 490.321 245.822 487.938 248.027C485.555 250.232 481.779 251.334 476.612 251.334ZM476.612 244.519C479.084 244.519 480.866 244.051 481.958 243.115C483.049 242.158 483.595 240.677 483.595 238.672C483.595 236.712 483.049 235.253 481.958 234.296C480.866 233.338 479.084 232.859 476.612 232.859C474.162 232.859 472.392 233.338 471.3 234.296C470.209 235.253 469.663 236.712 469.663 238.672C469.663 240.654 470.209 242.124 471.3 243.082C472.392 244.04 474.162 244.519 476.612 244.519ZM521.003 234.83C521.003 236.768 520.524 238.405 519.566 239.741C518.631 241.078 517.016 242.046 514.722 242.648C514.989 243.004 515.178 243.283 515.29 243.483L520.702 251H511.615C510.635 249.174 509.087 246.59 506.971 243.249H502.06V251H494.175C494.354 246.679 494.443 242.637 494.443 238.873C494.443 235.108 494.354 231.066 494.175 226.745H502.06V226.778H508.909C513.408 226.778 516.548 227.502 518.33 228.95C520.112 230.398 521.003 232.358 521.003 234.83ZM502.06 233.193V237.002H506.57C508.463 237.002 509.889 236.946 510.846 236.835C511.826 236.701 512.506 236.501 512.884 236.233C513.263 235.966 513.452 235.576 513.452 235.064C513.452 234.574 513.274 234.195 512.918 233.928C512.561 233.661 511.893 233.471 510.913 233.36C509.933 233.249 508.486 233.193 506.57 233.193H502.06ZM554.254 226.745L556.86 251H548.207L547.673 233.694L544.332 251H535.578L532.171 233.828L531.67 251H523.017L525.623 226.745H536.982L539.888 242.548L542.427 226.745H554.254ZM580.606 251C580.183 249.73 579.615 248.138 578.902 246.223H568.245L566.574 251H558.189L567.543 226.745H579.838L589.259 251H580.606ZM576.998 241.011C576.152 238.672 575.283 236.333 574.392 233.995L573.59 231.823C572.811 233.85 571.664 236.913 570.149 241.011H576.998ZM618.419 226.778C618.264 230.543 618.186 234.574 618.186 238.873C618.186 243.193 618.264 247.236 618.419 251H606.459L598.374 232.759L598.975 251H590.389C590.567 246.679 590.657 242.637 590.657 238.873C590.657 235.131 590.567 231.099 590.389 226.778H602.684L610.802 245.521L610.234 226.778H618.419ZM635.79 251.334C630.757 251.334 627.048 250.265 624.665 248.127C622.282 245.989 621.09 242.937 621.09 238.973C621.09 234.986 622.282 231.834 624.665 229.518C627.048 227.202 630.757 226.043 635.79 226.043C642.828 226.043 647.539 228.46 649.922 233.293C647.918 233.984 645.568 235.019 642.873 236.4C642.227 235.153 641.203 234.229 639.799 233.627C638.418 233.026 637.004 232.725 635.556 232.725C633.418 232.725 631.826 233.293 630.779 234.429C629.732 235.543 629.209 236.924 629.209 238.572C629.209 240.354 629.766 241.813 630.879 242.948C632.015 244.062 633.741 244.619 636.058 244.619C637.906 244.619 639.376 244.318 640.468 243.717C641.559 243.093 642.361 242.113 642.873 240.777C644.699 241.757 647.038 242.859 649.889 244.084C648.775 246.779 646.915 248.661 644.31 249.73C641.704 250.8 638.864 251.334 635.79 251.334ZM660.492 244.886C668.955 244.842 675.091 244.719 678.9 244.519C678.744 245.432 678.644 246.378 678.599 247.358C678.577 248.316 678.566 249.53 678.566 251H652.607C652.785 246.679 652.874 242.637 652.874 238.873C652.874 235.108 652.785 231.066 652.607 226.745H678.566V232.792H660.492V235.999C661.561 236.022 663.142 236.033 665.236 236.033C668.777 236.033 672.441 235.966 676.227 235.832V241.579C672.441 241.445 668.777 241.378 665.236 241.378C663.142 241.378 661.561 241.389 660.492 241.412V244.886Z" fill="white"/>
<path fill-rule="evenodd" clip-rule="evenodd" d="M15.1581 41.7622L29.0788 0C35.702 38.0835 70.3785 76.3868 104.239 105.679V128.03C44.8238 88.7756 15.1581 41.7622 15.1581 41.7622ZM104.239 149.698C78.8863 134.635 32.7831 103.778 8.6618 66.51L2.62949 100.538C2.62949 100.538 43.4165 138.486 104.239 155.427V149.698ZM111.239 157.259V153.767C117.925 157.567 122.003 159.624 122.038 159.624C118.379 158.918 114.778 158.126 111.239 157.259ZM104.239 172.688C76.0914 165.06 30.0282 150.016 0 126.988L0.154675 158.232C0.154675 158.232 45.6711 181.23 104.239 180.425V172.688ZM111.239 180.215V174.531C122.034 177.292 128.844 178.649 128.844 178.649C122.885 179.44 117.007 179.948 111.239 180.215ZM104.239 195.225C73.0435 195.069 26.9243 192.595 2.93884 180.505L10.2086 208.501C10.2086 208.501 58.2284 216.354 104.239 205.744V195.225ZM111.239 203.978V195.223C126.174 195.14 136.268 194.581 136.268 194.581C128.311 198.536 119.856 201.609 111.239 203.978ZM111.239 111.62V132.529C122.894 139.815 135.61 146.748 149.388 152.961V152.776L147.5 139.385C136.973 131.955 124.319 122.518 111.239 111.62ZM125.975 214C103.339 221.048 61.2631 231.398 18.4063 227.836L30.7803 247.789C30.7803 247.789 93.4563 248.206 136.215 214H125.975ZM48.2585 267.278L68.2115 282.9C68.2115 282.9 127.452 263.411 149.57 223.505C149.57 223.505 86.9272 265.112 48.2585 267.278Z" fill="#FE984E"/>
<path d="M189.849 45.1551H103.147L111.239 62.4956V207H189.849C209.964 207 221.062 195.902 221.062 175.787V76.368C221.062 56.253 209.964 45.1551 189.849 45.1551ZM182.913 167.695C182.913 171.394 180.832 173.475 177.133 173.475H149.388V78.6801H177.133C180.832 78.6801 182.913 80.7609 182.913 84.4602V167.695Z" fill="white"/>
<path d="M266.436 208.156H313.833C333.948 208.156 345.046 197.058 345.046 176.943V75.212C345.046 55.0969 333.948 43.999 313.833 43.999H266.436C246.321 43.999 235.223 55.0969 235.223 75.212V176.943C235.223 197.058 246.321 208.156 266.436 208.156ZM273.372 168.851V83.3042C273.372 79.6049 275.453 77.524 279.152 77.524H301.117C304.816 77.524 306.897 79.6049 306.897 83.3042V168.851C306.897 172.55 304.816 174.631 301.117 174.631H279.152C275.453 174.631 273.372 172.55 273.372 168.851Z" fill="white"/>
<path d="M342.918 45.1551L388.697 152.204V207H426.846V152.204L472.394 45.1551H431.933L407.887 110.355L383.379 45.1551H342.918Z" fill="white"/>
<path d="M514.281 173.475V45.1551H476.132V207H550.118L568.615 173.475H514.281Z" fill="white"/>
<path d="M611.758 141.106H646.439L664.935 107.581H611.758V78.6801H657.999L676.496 45.1551H565.516L573.608 62.4956V207H657.999L676.496 173.475H611.758V141.106Z" fill="white"/>
</svg>
