<svg width="32" height="32" viewBox="0 0 32 32" fill="none" xmlns="http://www.w3.org/2000/svg">
<path d="M28.6839 27.1289C28.6839 27.1289 20.4499 25.5051 22.0737 17.6976C22.0737 17.6976 8.0661 9.29959 6.6227 1L5.14648 5.42863C5.14648 5.42863 9.88676 12.9409 19.3837 17.2219C19.3673 17.2055 19.1377 27.0633 28.6839 27.1289Z" fill="#FE984E"/>
<path d="M4.45781 8.05322L3.81812 11.6617C3.81812 11.6617 9.00126 16.484 16.4807 17.9274C16.4643 17.9274 8.09913 13.6792 4.45781 8.05322Z" fill="#FE984E"/>
<path d="M3.53906 14.4663L3.55546 17.7796C3.55546 17.7796 9.78836 20.9288 17.2022 19.9447C17.2022 19.9447 8.39416 18.1896 3.53906 14.4663Z" fill="#FE984E"/>
<path d="M3.85083 20.1416L4.62174 23.1104C4.62174 23.1104 12.4457 24.3898 17.9897 21.6342C17.9897 21.6342 7.91861 22.1919 3.85083 20.1416Z" fill="#FE984E"/>
<path d="M5.49097 25.161L6.80315 27.2769C6.80315 27.2769 14.2006 27.3261 18.7113 23.0615C18.7277 23.0615 12.1995 25.7187 5.49097 25.161Z" fill="#FE984E"/>
<path d="M8.65674 29.3435L10.7726 31.0002C10.7726 31.0002 17.0547 28.9335 19.4003 24.7017C19.4003 24.7017 12.7573 29.1139 8.65674 29.3435Z" fill="#FE984E"/>
</svg>
